<svg xmlns="http://www.w3.org/2000/svg" xmlns:xlink="http://www.w3.org/1999/xlink" width="2497.166" height="2336.576" viewBox="0 0 2497.166 2336.576">
  <defs>
    <linearGradient id="linear-gradient" x1="-0.113" y1="0.97" x2="0.044" gradientUnits="objectBoundingBox">
      <stop offset="0" stop-color="#9b51e0"/>
      <stop offset="0.76" stop-color="#347fe2"/>
      <stop offset="1" stop-color="#0693e3"/>
    </linearGradient>
    <filter id="Path_115" x="0" y="0" width="2497.166" height="2336.576" filterUnits="userSpaceOnUse">
      <feOffset dy="3" input="SourceAlpha"/>
      <feGaussianBlur stdDeviation="3" result="blur"/>
      <feFlood flood-color="#c46666" flood-opacity="0.161"/>
      <feComposite operator="in" in2="blur"/>
    </filter>
    <filter id="Path_115-2" x="0" y="0" width="2497.166" height="2336.576" filterUnits="userSpaceOnUse">
      <feOffset dy="3" input="SourceAlpha"/>
      <feGaussianBlur stdDeviation="3" result="blur-2"/>
      <feFlood flood-opacity="0.161" result="color"/>
      <feComposite operator="out" in="SourceGraphic" in2="blur-2"/>
      <feComposite operator="in" in="color"/>
      <feComposite operator="in" in2="SourceGraphic"/>
    </filter>
  </defs>
  <g data-type="innerShadowGroup">
    <g transform="matrix(1, 0, 0, 1, 0, 0)" filter="url(#Path_115)" style="mix-blend-mode: darken;isolation: isolate">
      <g id="Path_115-3" data-name="Path 115" transform="matrix(0.82, -0.57, 0.57, 0.82, 70.24, 1267.2)" fill="url(#linear-gradient)">
        <path d="M 1897.39208984375 1289.621704101562 L 400.0000305175781 1289.621704101562 C 386.3390502929688 1289.621704101562 372.5620422363281 1288.925903320312 359.0517883300781 1287.553955078125 C 345.7370300292969 1286.20166015625 332.3577880859375 1284.159912109375 319.2857971191406 1281.48486328125 C 306.3827819824219 1278.844604492188 293.4692993164062 1275.524169921875 280.90380859375 1271.615844726562 C 268.4787902832031 1267.751342773438 256.0985412597656 1263.220092773438 244.1072998046875 1258.148193359375 C 220.3757934570312 1248.110595703125 197.4868011474609 1235.686889648438 176.0762939453125 1221.22216796875 C 154.8692932128906 1206.895141601562 134.9270477294922 1190.441162109375 116.8037948608398 1172.31787109375 C 98.6805419921875 1154.194702148438 82.22654724121094 1134.25244140625 67.89954376220703 1113.04541015625 C 53.43479537963867 1091.634887695312 41.01104354858398 1068.745849609375 30.97354507446289 1045.014404296875 C 25.90154457092285 1033.023193359375 21.37029457092285 1020.642883300781 17.50579452514648 1008.217895507812 C 13.59754467010498 995.6524047851562 10.27704524993896 982.7388916015625 7.636795043945312 969.8358764648438 C 4.961794853210449 956.763916015625 2.920044898986816 943.3846435546875 1.567794919013977 930.0698852539062 C 0.1957949250936508 916.5596313476562 -0.4999550879001617 902.7826538085938 -0.4999550879001617 889.1216430664062 L -0.4999550879001617 199.9999084472656 C -0.4999550879001617 186.5016479492188 1.908294916152954 171.3849029541016 6.65754508972168 155.0699005126953 C 11.1985445022583 139.4711456298828 17.8572940826416 122.8354034423828 26.44904518127441 105.6249008178711 C 34.79179382324219 88.91315460205078 44.86254501342773 71.84165191650391 56.38154602050781 54.88415145874023 C 67.78754425048828 38.09289932250977 80.43604278564453 21.67365074157715 93.97504425048828 6.082150936126709 C 121.9630432128906 -26.14809989929199 152.4870452880859 -53.40309906005859 182.2472991943359 -72.73684692382812 C 197.9837951660156 -82.96009826660156 213.3750457763672 -90.87435150146484 227.9937896728516 -96.26010131835938 C 243.4430389404297 -101.9515991210938 258.0968017578125 -104.8373489379883 271.5480346679688 -104.8373489379883 L 271.7057800292969 -104.8373489379883 L 271.8348083496094 -104.7468490600586 L 1370.69775390625 664.6849975585938 C 1380.869262695312 664.6983032226562 1392.335205078125 665.997802734375 1404.781005859375 668.5484008789062 C 1416.970581054688 671.04638671875 1429.934814453125 674.7078857421875 1443.31298828125 679.431640625 C 1456.627563476562 684.1326293945312 1470.121826171875 689.8036499023438 1483.420532226562 696.2871704101562 C 1496.9462890625 702.8811645507812 1510.053588867188 710.211669921875 1522.378295898438 718.0746459960938 C 1535.150512695312 726.22314453125 1546.952514648438 734.8641357421875 1557.45703125 743.7573852539062 C 1568.492553710938 753.1004028320312 1578.07080078125 762.7053833007812 1585.926025390625 772.3056640625 C 1594.248779296875 782.4774169921875 1600.682006835938 792.7046508789062 1605.046752929688 802.7034301757812 C 1609.651611328125 813.2513427734375 1612.005859375 823.6712036132812 1612.046020507812 833.6788330078125 L 2047.678833007812 1138.712158203125 L 2047.89208984375 1138.861450195312 L 2047.89208984375 1139.121704101562 C 2047.89208984375 1149.332641601562 2046.86328125 1159.537109375 2044.834594726562 1169.4521484375 C 2042.857055664062 1179.115356445312 2039.906494140625 1188.620361328125 2036.064819335938 1197.703125 C 2032.292846679688 1206.62109375 2027.624267578125 1215.222412109375 2022.188842773438 1223.267944335938 C 2016.804809570312 1231.237182617188 2010.6220703125 1238.73095703125 2003.8115234375 1245.541137695312 C 1997.001342773438 1252.351684570312 1989.507568359375 1258.534423828125 1981.538330078125 1263.91845703125 C 1973.492797851562 1269.353881835938 1964.8916015625 1274.0224609375 1955.973510742188 1277.79443359375 C 1946.890747070312 1281.636108398438 1937.3857421875 1284.586669921875 1927.722534179688 1286.564208984375 C 1917.807495117188 1288.592895507812 1907.60302734375 1289.621704101562 1897.39208984375 1289.621704101562 Z" stroke="none"/>
        <path d="M 271.548095703125 -104.33740234375 C 161.091064453125 -104.33740234375 0 89.5430908203125 0 199.9998779296875 L 0 889.1216430664062 C 0 1110.03564453125 179.0860595703125 1289.121704101562 400 1289.121704101562 L 1897.39208984375 1289.121704101562 C 1980.234741210938 1289.121704101562 2047.39208984375 1221.96435546875 2047.39208984375 1139.121704101562 L 1611.546508789062 833.9393920898438 C 1611.546508789062 751.096923828125 1453.3828125 665.1848754882812 1370.539794921875 665.1848754882812 L 271.548095703125 -104.33740234375 M 271.548095703125 -105.33740234375 L 271.86328125 -105.33740234375 L 272.12158203125 -105.1566162109375 L 1370.855712890625 664.185302734375 C 1381.021484375 664.2117919921875 1392.466674804688 665.5145263671875 1404.88134765625 668.0586547851562 C 1417.09326171875 670.5611572265625 1430.07958984375 674.2288818359375 1443.4794921875 678.9601440429688 C 1456.811767578125 683.6673583984375 1470.32373046875 689.3458862304688 1483.639770507812 695.837646484375 C 1497.182373046875 702.440185546875 1510.306274414062 709.7799072265625 1522.64697265625 717.6531372070312 C 1535.438232421875 725.8136596679688 1547.258544921875 734.4681396484375 1557.780029296875 743.3759155273438 C 1568.8388671875 752.7384033203125 1578.4384765625 762.3653564453125 1586.31298828125 771.9891357421875 C 1594.664794921875 782.1964111328125 1601.1220703125 792.462890625 1605.505004882812 802.50341796875 C 1610.097412109375 813.0225830078125 1612.464599609375 823.4208984375 1612.54443359375 833.4172973632812 L 2048.39208984375 1138.601196289062 L 2048.39208984375 1139.121704101562 C 2048.39208984375 1149.3662109375 2047.359741210938 1159.604614257812 2045.324340820312 1169.552368164062 C 2043.34033203125 1179.247924804688 2040.379760742188 1188.78466796875 2036.525268554688 1197.89794921875 C 2032.740844726562 1206.845703125 2028.056762695312 1215.475341796875 2022.60302734375 1223.5478515625 C 2017.201293945312 1231.54345703125 2010.998046875 1239.061889648438 2004.165283203125 1245.894897460938 C 1997.332275390625 1252.727661132812 1989.813842773438 1258.930908203125 1981.818359375 1264.332641601562 C 1973.745849609375 1269.786376953125 1965.116088867188 1274.470458984375 1956.168334960938 1278.2548828125 C 1947.055053710938 1282.109375 1937.518310546875 1285.069946289062 1927.82275390625 1287.053955078125 C 1917.875 1289.08935546875 1907.636596679688 1290.121704101562 1897.39208984375 1290.121704101562 L 400 1290.121704101562 C 386.322265625 1290.121704101562 372.5283203125 1289.425170898438 359.0013427734375 1288.051391601562 C 345.6697998046875 1286.697387695312 332.2738037109375 1284.653198242188 319.185546875 1281.974609375 C 306.2666015625 1279.331176757812 293.3365478515625 1276.006591796875 280.7552490234375 1272.093383789062 C 268.3145751953125 1268.223876953125 255.9188232421875 1263.686889648438 243.912353515625 1258.608642578125 C 220.1512451171875 1248.55859375 197.2337646484375 1236.119384765625 175.7962646484375 1221.636596679688 C 154.56298828125 1207.291625976562 134.5960693359375 1190.8173828125 116.4503173828125 1172.67138671875 C 98.3043212890625 1154.525634765625 81.830078125 1134.55859375 67.4849853515625 1113.325439453125 C 53.0023193359375 1091.887939453125 40.56298828125 1068.970458984375 30.5130615234375 1045.209350585938 C 25.434814453125 1033.202880859375 20.8978271484375 1020.80712890625 17.0283203125 1008.366394042969 C 13.114990234375 995.78515625 9.79052734375 982.8551635742188 7.1470947265625 969.9361572265625 C 4.468505859375 956.847900390625 2.42431640625 943.451904296875 1.0703125 930.1204223632812 C -0.303466796875 916.5933837890625 -1 902.7994384765625 -1 889.1216430664062 L -1 199.9998779296875 C -1 186.4544067382812 1.414794921875 171.2906494140625 6.177490234375 154.93017578125 C 10.726806640625 139.3026123046875 17.396484375 122.638916015625 26.0018310546875 105.401611328125 C 34.354248046875 88.670166015625 44.4365234375 71.578857421875 55.968017578125 54.6031494140625 C 67.385009765625 37.795654296875 80.0455322265625 21.360595703125 93.5975341796875 5.75439453125 C 121.6156005859375 -26.5106201171875 152.176025390625 -53.79736328125 181.974853515625 -73.1561279296875 C 197.7425537109375 -83.399658203125 213.167236328125 -91.33056640625 227.821044921875 -96.7291259765625 C 243.3258056640625 -102.4410400390625 258.03759765625 -105.33740234375 271.548095703125 -105.33740234375 Z" stroke="none" fill="#707070"/>
      </g>
    </g>
    <g id="Path_115-4" data-name="Path 115" transform="matrix(0.819, -0.574, 0.574, 0.819, 70.238, 1267.197)" fill="url(#linear-gradient)" style="mix-blend-mode: darken;isolation: isolate">
      <path d="M 1897.39208984375 1289.621704101562 L 400.0000305175781 1289.621704101562 C 386.3390502929688 1289.621704101562 372.5620422363281 1288.925903320312 359.0517883300781 1287.553955078125 C 345.7370300292969 1286.20166015625 332.3577880859375 1284.159912109375 319.2857971191406 1281.48486328125 C 306.3827819824219 1278.844604492188 293.4692993164062 1275.524169921875 280.90380859375 1271.615844726562 C 268.4787902832031 1267.751342773438 256.0985412597656 1263.220092773438 244.1072998046875 1258.148193359375 C 220.3757934570312 1248.110595703125 197.4868011474609 1235.686889648438 176.0762939453125 1221.22216796875 C 154.8692932128906 1206.895141601562 134.9270477294922 1190.441162109375 116.8037948608398 1172.31787109375 C 98.6805419921875 1154.194702148438 82.22654724121094 1134.25244140625 67.89954376220703 1113.04541015625 C 53.43479537963867 1091.634887695312 41.01104354858398 1068.745849609375 30.97354507446289 1045.014404296875 C 25.90154457092285 1033.023193359375 21.37029457092285 1020.642883300781 17.50579452514648 1008.217895507812 C 13.59754467010498 995.6524047851562 10.27704524993896 982.7388916015625 7.636795043945312 969.8358764648438 C 4.961794853210449 956.763916015625 2.920044898986816 943.3846435546875 1.567794919013977 930.0698852539062 C 0.1957949250936508 916.5596313476562 -0.4999550879001617 902.7826538085938 -0.4999550879001617 889.1216430664062 L -0.4999550879001617 199.9999084472656 C -0.4999550879001617 186.5016479492188 1.908294916152954 171.3849029541016 6.65754508972168 155.0699005126953 C 11.1985445022583 139.4711456298828 17.8572940826416 122.8354034423828 26.44904518127441 105.6249008178711 C 34.79179382324219 88.91315460205078 44.86254501342773 71.84165191650391 56.38154602050781 54.88415145874023 C 67.78754425048828 38.09289932250977 80.43604278564453 21.67365074157715 93.97504425048828 6.082150936126709 C 121.9630432128906 -26.14809989929199 152.4870452880859 -53.40309906005859 182.2472991943359 -72.73684692382812 C 197.9837951660156 -82.96009826660156 213.3750457763672 -90.87435150146484 227.9937896728516 -96.26010131835938 C 243.4430389404297 -101.9515991210938 258.0968017578125 -104.8373489379883 271.5480346679688 -104.8373489379883 L 271.7057800292969 -104.8373489379883 L 271.8348083496094 -104.7468490600586 L 1370.69775390625 664.6849975585938 C 1380.869262695312 664.6983032226562 1392.335205078125 665.997802734375 1404.781005859375 668.5484008789062 C 1416.970581054688 671.04638671875 1429.934814453125 674.7078857421875 1443.31298828125 679.431640625 C 1456.627563476562 684.1326293945312 1470.121826171875 689.8036499023438 1483.420532226562 696.2871704101562 C 1496.9462890625 702.8811645507812 1510.053588867188 710.211669921875 1522.378295898438 718.0746459960938 C 1535.150512695312 726.22314453125 1546.952514648438 734.8641357421875 1557.45703125 743.7573852539062 C 1568.492553710938 753.1004028320312 1578.07080078125 762.7053833007812 1585.926025390625 772.3056640625 C 1594.248779296875 782.4774169921875 1600.682006835938 792.7046508789062 1605.046752929688 802.7034301757812 C 1609.651611328125 813.2513427734375 1612.005859375 823.6712036132812 1612.046020507812 833.6788330078125 L 2047.678833007812 1138.712158203125 L 2047.89208984375 1138.861450195312 L 2047.89208984375 1139.121704101562 C 2047.89208984375 1149.332641601562 2046.86328125 1159.537109375 2044.834594726562 1169.4521484375 C 2042.857055664062 1179.115356445312 2039.906494140625 1188.620361328125 2036.064819335938 1197.703125 C 2032.292846679688 1206.62109375 2027.624267578125 1215.222412109375 2022.188842773438 1223.267944335938 C 2016.804809570312 1231.237182617188 2010.6220703125 1238.73095703125 2003.8115234375 1245.541137695312 C 1997.001342773438 1252.351684570312 1989.507568359375 1258.534423828125 1981.538330078125 1263.91845703125 C 1973.492797851562 1269.353881835938 1964.8916015625 1274.0224609375 1955.973510742188 1277.79443359375 C 1946.890747070312 1281.636108398438 1937.3857421875 1284.586669921875 1927.722534179688 1286.564208984375 C 1917.807495117188 1288.592895507812 1907.60302734375 1289.621704101562 1897.39208984375 1289.621704101562 Z" stroke="none"/>
      <path d="M 271.548095703125 -104.33740234375 C 161.091064453125 -104.33740234375 0 89.5430908203125 0 199.9998779296875 L 0 889.1216430664062 C 0 1110.03564453125 179.0860595703125 1289.121704101562 400 1289.121704101562 L 1897.39208984375 1289.121704101562 C 1980.234741210938 1289.121704101562 2047.39208984375 1221.96435546875 2047.39208984375 1139.121704101562 L 1611.546508789062 833.9393920898438 C 1611.546508789062 751.096923828125 1453.3828125 665.1848754882812 1370.539794921875 665.1848754882812 L 271.548095703125 -104.33740234375 M 271.548095703125 -105.33740234375 L 271.86328125 -105.33740234375 L 272.12158203125 -105.1566162109375 L 1370.855712890625 664.185302734375 C 1381.021484375 664.2117919921875 1392.466674804688 665.5145263671875 1404.88134765625 668.0586547851562 C 1417.09326171875 670.5611572265625 1430.07958984375 674.2288818359375 1443.4794921875 678.9601440429688 C 1456.811767578125 683.6673583984375 1470.32373046875 689.3458862304688 1483.639770507812 695.837646484375 C 1497.182373046875 702.440185546875 1510.306274414062 709.7799072265625 1522.64697265625 717.6531372070312 C 1535.438232421875 725.8136596679688 1547.258544921875 734.4681396484375 1557.780029296875 743.3759155273438 C 1568.8388671875 752.7384033203125 1578.4384765625 762.3653564453125 1586.31298828125 771.9891357421875 C 1594.664794921875 782.1964111328125 1601.1220703125 792.462890625 1605.505004882812 802.50341796875 C 1610.097412109375 813.0225830078125 1612.464599609375 823.4208984375 1612.54443359375 833.4172973632812 L 2048.39208984375 1138.601196289062 L 2048.39208984375 1139.121704101562 C 2048.39208984375 1149.3662109375 2047.359741210938 1159.604614257812 2045.324340820312 1169.552368164062 C 2043.34033203125 1179.247924804688 2040.379760742188 1188.78466796875 2036.525268554688 1197.89794921875 C 2032.740844726562 1206.845703125 2028.056762695312 1215.475341796875 2022.60302734375 1223.5478515625 C 2017.201293945312 1231.54345703125 2010.998046875 1239.061889648438 2004.165283203125 1245.894897460938 C 1997.332275390625 1252.727661132812 1989.813842773438 1258.930908203125 1981.818359375 1264.332641601562 C 1973.745849609375 1269.786376953125 1965.116088867188 1274.470458984375 1956.168334960938 1278.2548828125 C 1947.055053710938 1282.109375 1937.518310546875 1285.069946289062 1927.82275390625 1287.053955078125 C 1917.875 1289.08935546875 1907.636596679688 1290.121704101562 1897.39208984375 1290.121704101562 L 400 1290.121704101562 C 386.322265625 1290.121704101562 372.5283203125 1289.425170898438 359.0013427734375 1288.051391601562 C 345.6697998046875 1286.697387695312 332.2738037109375 1284.653198242188 319.185546875 1281.974609375 C 306.2666015625 1279.331176757812 293.3365478515625 1276.006591796875 280.7552490234375 1272.093383789062 C 268.3145751953125 1268.223876953125 255.9188232421875 1263.686889648438 243.912353515625 1258.608642578125 C 220.1512451171875 1248.55859375 197.2337646484375 1236.119384765625 175.7962646484375 1221.636596679688 C 154.56298828125 1207.291625976562 134.5960693359375 1190.8173828125 116.4503173828125 1172.67138671875 C 98.3043212890625 1154.525634765625 81.830078125 1134.55859375 67.4849853515625 1113.325439453125 C 53.0023193359375 1091.887939453125 40.56298828125 1068.970458984375 30.5130615234375 1045.209350585938 C 25.434814453125 1033.202880859375 20.8978271484375 1020.80712890625 17.0283203125 1008.366394042969 C 13.114990234375 995.78515625 9.79052734375 982.8551635742188 7.1470947265625 969.9361572265625 C 4.468505859375 956.847900390625 2.42431640625 943.451904296875 1.0703125 930.1204223632812 C -0.303466796875 916.5933837890625 -1 902.7994384765625 -1 889.1216430664062 L -1 199.9998779296875 C -1 186.4544067382812 1.414794921875 171.2906494140625 6.177490234375 154.93017578125 C 10.726806640625 139.3026123046875 17.396484375 122.638916015625 26.0018310546875 105.401611328125 C 34.354248046875 88.670166015625 44.4365234375 71.578857421875 55.968017578125 54.6031494140625 C 67.385009765625 37.795654296875 80.0455322265625 21.360595703125 93.5975341796875 5.75439453125 C 121.6156005859375 -26.5106201171875 152.176025390625 -53.79736328125 181.974853515625 -73.1561279296875 C 197.7425537109375 -83.399658203125 213.167236328125 -91.33056640625 227.821044921875 -96.7291259765625 C 243.3258056640625 -102.4410400390625 258.03759765625 -105.33740234375 271.548095703125 -105.33740234375 Z" stroke="none"/>
    </g>
    <g transform="matrix(1, 0, 0, 1, 0, 0)" filter="url(#Path_115-2)" style="mix-blend-mode: darken;isolation: isolate">
      <g id="Path_115-5" data-name="Path 115" transform="matrix(0.82, -0.57, 0.57, 0.82, 70.24, 1267.2)" fill="#fff">
        <path d="M 1897.39208984375 1289.621704101562 L 400.0000305175781 1289.621704101562 C 386.3390502929688 1289.621704101562 372.5620422363281 1288.925903320312 359.0517883300781 1287.553955078125 C 345.7370300292969 1286.20166015625 332.3577880859375 1284.159912109375 319.2857971191406 1281.48486328125 C 306.3827819824219 1278.844604492188 293.4692993164062 1275.524169921875 280.90380859375 1271.615844726562 C 268.4787902832031 1267.751342773438 256.0985412597656 1263.220092773438 244.1072998046875 1258.148193359375 C 220.3757934570312 1248.110595703125 197.4868011474609 1235.686889648438 176.0762939453125 1221.22216796875 C 154.8692932128906 1206.895141601562 134.9270477294922 1190.441162109375 116.8037948608398 1172.31787109375 C 98.6805419921875 1154.194702148438 82.22654724121094 1134.25244140625 67.89954376220703 1113.04541015625 C 53.43479537963867 1091.634887695312 41.01104354858398 1068.745849609375 30.97354507446289 1045.014404296875 C 25.90154457092285 1033.023193359375 21.37029457092285 1020.642883300781 17.50579452514648 1008.217895507812 C 13.59754467010498 995.6524047851562 10.27704524993896 982.7388916015625 7.636795043945312 969.8358764648438 C 4.961794853210449 956.763916015625 2.920044898986816 943.3846435546875 1.567794919013977 930.0698852539062 C 0.1957949250936508 916.5596313476562 -0.4999550879001617 902.7826538085938 -0.4999550879001617 889.1216430664062 L -0.4999550879001617 199.9999084472656 C -0.4999550879001617 186.5016479492188 1.908294916152954 171.3849029541016 6.65754508972168 155.0699005126953 C 11.1985445022583 139.4711456298828 17.8572940826416 122.8354034423828 26.44904518127441 105.6249008178711 C 34.79179382324219 88.91315460205078 44.86254501342773 71.84165191650391 56.38154602050781 54.88415145874023 C 67.78754425048828 38.09289932250977 80.43604278564453 21.67365074157715 93.97504425048828 6.082150936126709 C 121.9630432128906 -26.14809989929199 152.4870452880859 -53.40309906005859 182.2472991943359 -72.73684692382812 C 197.9837951660156 -82.96009826660156 213.3750457763672 -90.87435150146484 227.9937896728516 -96.26010131835938 C 243.4430389404297 -101.9515991210938 258.0968017578125 -104.8373489379883 271.5480346679688 -104.8373489379883 L 271.7057800292969 -104.8373489379883 L 271.8348083496094 -104.7468490600586 L 1370.69775390625 664.6849975585938 C 1380.869262695312 664.6983032226562 1392.335205078125 665.997802734375 1404.781005859375 668.5484008789062 C 1416.970581054688 671.04638671875 1429.934814453125 674.7078857421875 1443.31298828125 679.431640625 C 1456.627563476562 684.1326293945312 1470.121826171875 689.8036499023438 1483.420532226562 696.2871704101562 C 1496.9462890625 702.8811645507812 1510.053588867188 710.211669921875 1522.378295898438 718.0746459960938 C 1535.150512695312 726.22314453125 1546.952514648438 734.8641357421875 1557.45703125 743.7573852539062 C 1568.492553710938 753.1004028320312 1578.07080078125 762.7053833007812 1585.926025390625 772.3056640625 C 1594.248779296875 782.4774169921875 1600.682006835938 792.7046508789062 1605.046752929688 802.7034301757812 C 1609.651611328125 813.2513427734375 1612.005859375 823.6712036132812 1612.046020507812 833.6788330078125 L 2047.678833007812 1138.712158203125 L 2047.89208984375 1138.861450195312 L 2047.89208984375 1139.121704101562 C 2047.89208984375 1149.332641601562 2046.86328125 1159.537109375 2044.834594726562 1169.4521484375 C 2042.857055664062 1179.115356445312 2039.906494140625 1188.620361328125 2036.064819335938 1197.703125 C 2032.292846679688 1206.62109375 2027.624267578125 1215.222412109375 2022.188842773438 1223.267944335938 C 2016.804809570312 1231.237182617188 2010.6220703125 1238.73095703125 2003.8115234375 1245.541137695312 C 1997.001342773438 1252.351684570312 1989.507568359375 1258.534423828125 1981.538330078125 1263.91845703125 C 1973.492797851562 1269.353881835938 1964.8916015625 1274.0224609375 1955.973510742188 1277.79443359375 C 1946.890747070312 1281.636108398438 1937.3857421875 1284.586669921875 1927.722534179688 1286.564208984375 C 1917.807495117188 1288.592895507812 1907.60302734375 1289.621704101562 1897.39208984375 1289.621704101562 Z" stroke="none"/>
        <path d="M 271.548095703125 -104.33740234375 C 161.091064453125 -104.33740234375 0 89.5430908203125 0 199.9998779296875 L 0 889.1216430664062 C 0 1110.03564453125 179.0860595703125 1289.121704101562 400 1289.121704101562 L 1897.39208984375 1289.121704101562 C 1980.234741210938 1289.121704101562 2047.39208984375 1221.96435546875 2047.39208984375 1139.121704101562 L 1611.546508789062 833.9393920898438 C 1611.546508789062 751.096923828125 1453.3828125 665.1848754882812 1370.539794921875 665.1848754882812 L 271.548095703125 -104.33740234375 M 271.548095703125 -105.33740234375 L 271.86328125 -105.33740234375 L 272.12158203125 -105.1566162109375 L 1370.855712890625 664.185302734375 C 1381.021484375 664.2117919921875 1392.466674804688 665.5145263671875 1404.88134765625 668.0586547851562 C 1417.09326171875 670.5611572265625 1430.07958984375 674.2288818359375 1443.4794921875 678.9601440429688 C 1456.811767578125 683.6673583984375 1470.32373046875 689.3458862304688 1483.639770507812 695.837646484375 C 1497.182373046875 702.440185546875 1510.306274414062 709.7799072265625 1522.64697265625 717.6531372070312 C 1535.438232421875 725.8136596679688 1547.258544921875 734.4681396484375 1557.780029296875 743.3759155273438 C 1568.8388671875 752.7384033203125 1578.4384765625 762.3653564453125 1586.31298828125 771.9891357421875 C 1594.664794921875 782.1964111328125 1601.1220703125 792.462890625 1605.505004882812 802.50341796875 C 1610.097412109375 813.0225830078125 1612.464599609375 823.4208984375 1612.54443359375 833.4172973632812 L 2048.39208984375 1138.601196289062 L 2048.39208984375 1139.121704101562 C 2048.39208984375 1149.3662109375 2047.359741210938 1159.604614257812 2045.324340820312 1169.552368164062 C 2043.34033203125 1179.247924804688 2040.379760742188 1188.78466796875 2036.525268554688 1197.89794921875 C 2032.740844726562 1206.845703125 2028.056762695312 1215.475341796875 2022.60302734375 1223.5478515625 C 2017.201293945312 1231.54345703125 2010.998046875 1239.061889648438 2004.165283203125 1245.894897460938 C 1997.332275390625 1252.727661132812 1989.813842773438 1258.930908203125 1981.818359375 1264.332641601562 C 1973.745849609375 1269.786376953125 1965.116088867188 1274.470458984375 1956.168334960938 1278.2548828125 C 1947.055053710938 1282.109375 1937.518310546875 1285.069946289062 1927.82275390625 1287.053955078125 C 1917.875 1289.08935546875 1907.636596679688 1290.121704101562 1897.39208984375 1290.121704101562 L 400 1290.121704101562 C 386.322265625 1290.121704101562 372.5283203125 1289.425170898438 359.0013427734375 1288.051391601562 C 345.6697998046875 1286.697387695312 332.2738037109375 1284.653198242188 319.185546875 1281.974609375 C 306.2666015625 1279.331176757812 293.3365478515625 1276.006591796875 280.7552490234375 1272.093383789062 C 268.3145751953125 1268.223876953125 255.9188232421875 1263.686889648438 243.912353515625 1258.608642578125 C 220.1512451171875 1248.55859375 197.2337646484375 1236.119384765625 175.7962646484375 1221.636596679688 C 154.56298828125 1207.291625976562 134.5960693359375 1190.8173828125 116.4503173828125 1172.67138671875 C 98.3043212890625 1154.525634765625 81.830078125 1134.55859375 67.4849853515625 1113.325439453125 C 53.0023193359375 1091.887939453125 40.56298828125 1068.970458984375 30.5130615234375 1045.209350585938 C 25.434814453125 1033.202880859375 20.8978271484375 1020.80712890625 17.0283203125 1008.366394042969 C 13.114990234375 995.78515625 9.79052734375 982.8551635742188 7.1470947265625 969.9361572265625 C 4.468505859375 956.847900390625 2.42431640625 943.451904296875 1.0703125 930.1204223632812 C -0.303466796875 916.5933837890625 -1 902.7994384765625 -1 889.1216430664062 L -1 199.9998779296875 C -1 186.4544067382812 1.414794921875 171.2906494140625 6.177490234375 154.93017578125 C 10.726806640625 139.3026123046875 17.396484375 122.638916015625 26.0018310546875 105.401611328125 C 34.354248046875 88.670166015625 44.4365234375 71.578857421875 55.968017578125 54.6031494140625 C 67.385009765625 37.795654296875 80.0455322265625 21.360595703125 93.5975341796875 5.75439453125 C 121.6156005859375 -26.5106201171875 152.176025390625 -53.79736328125 181.974853515625 -73.1561279296875 C 197.7425537109375 -83.399658203125 213.167236328125 -91.33056640625 227.821044921875 -96.7291259765625 C 243.3258056640625 -102.4410400390625 258.03759765625 -105.33740234375 271.548095703125 -105.33740234375 Z" stroke="none"/>
      </g>
    </g>
    <g id="Path_115-6" data-name="Path 115" transform="matrix(0.819, -0.574, 0.574, 0.819, 70.238, 1267.197)" fill="none" style="mix-blend-mode: darken;isolation: isolate">
      <path d="M 1897.39208984375 1289.621704101562 L 400.0000305175781 1289.621704101562 C 386.3390502929688 1289.621704101562 372.5620422363281 1288.925903320312 359.0517883300781 1287.553955078125 C 345.7370300292969 1286.20166015625 332.3577880859375 1284.159912109375 319.2857971191406 1281.48486328125 C 306.3827819824219 1278.844604492188 293.4692993164062 1275.524169921875 280.90380859375 1271.615844726562 C 268.4787902832031 1267.751342773438 256.0985412597656 1263.220092773438 244.1072998046875 1258.148193359375 C 220.3757934570312 1248.110595703125 197.4868011474609 1235.686889648438 176.0762939453125 1221.22216796875 C 154.8692932128906 1206.895141601562 134.9270477294922 1190.441162109375 116.8037948608398 1172.31787109375 C 98.6805419921875 1154.194702148438 82.22654724121094 1134.25244140625 67.89954376220703 1113.04541015625 C 53.43479537963867 1091.634887695312 41.01104354858398 1068.745849609375 30.97354507446289 1045.014404296875 C 25.90154457092285 1033.023193359375 21.37029457092285 1020.642883300781 17.50579452514648 1008.217895507812 C 13.59754467010498 995.6524047851562 10.27704524993896 982.7388916015625 7.636795043945312 969.8358764648438 C 4.961794853210449 956.763916015625 2.920044898986816 943.3846435546875 1.567794919013977 930.0698852539062 C 0.1957949250936508 916.5596313476562 -0.4999550879001617 902.7826538085938 -0.4999550879001617 889.1216430664062 L -0.4999550879001617 199.9999084472656 C -0.4999550879001617 186.5016479492188 1.908294916152954 171.3849029541016 6.65754508972168 155.0699005126953 C 11.1985445022583 139.4711456298828 17.8572940826416 122.8354034423828 26.44904518127441 105.6249008178711 C 34.79179382324219 88.91315460205078 44.86254501342773 71.84165191650391 56.38154602050781 54.88415145874023 C 67.78754425048828 38.09289932250977 80.43604278564453 21.67365074157715 93.97504425048828 6.082150936126709 C 121.9630432128906 -26.14809989929199 152.4870452880859 -53.40309906005859 182.2472991943359 -72.73684692382812 C 197.9837951660156 -82.96009826660156 213.3750457763672 -90.87435150146484 227.9937896728516 -96.26010131835938 C 243.4430389404297 -101.9515991210938 258.0968017578125 -104.8373489379883 271.5480346679688 -104.8373489379883 L 271.7057800292969 -104.8373489379883 L 271.8348083496094 -104.7468490600586 L 1370.69775390625 664.6849975585938 C 1380.869262695312 664.6983032226562 1392.335205078125 665.997802734375 1404.781005859375 668.5484008789062 C 1416.970581054688 671.04638671875 1429.934814453125 674.7078857421875 1443.31298828125 679.431640625 C 1456.627563476562 684.1326293945312 1470.121826171875 689.8036499023438 1483.420532226562 696.2871704101562 C 1496.9462890625 702.8811645507812 1510.053588867188 710.211669921875 1522.378295898438 718.0746459960938 C 1535.150512695312 726.22314453125 1546.952514648438 734.8641357421875 1557.45703125 743.7573852539062 C 1568.492553710938 753.1004028320312 1578.07080078125 762.7053833007812 1585.926025390625 772.3056640625 C 1594.248779296875 782.4774169921875 1600.682006835938 792.7046508789062 1605.046752929688 802.7034301757812 C 1609.651611328125 813.2513427734375 1612.005859375 823.6712036132812 1612.046020507812 833.6788330078125 L 2047.678833007812 1138.712158203125 L 2047.89208984375 1138.861450195312 L 2047.89208984375 1139.121704101562 C 2047.89208984375 1149.332641601562 2046.86328125 1159.537109375 2044.834594726562 1169.4521484375 C 2042.857055664062 1179.115356445312 2039.906494140625 1188.620361328125 2036.064819335938 1197.703125 C 2032.292846679688 1206.62109375 2027.624267578125 1215.222412109375 2022.188842773438 1223.267944335938 C 2016.804809570312 1231.237182617188 2010.6220703125 1238.73095703125 2003.8115234375 1245.541137695312 C 1997.001342773438 1252.351684570312 1989.507568359375 1258.534423828125 1981.538330078125 1263.91845703125 C 1973.492797851562 1269.353881835938 1964.8916015625 1274.0224609375 1955.973510742188 1277.79443359375 C 1946.890747070312 1281.636108398438 1937.3857421875 1284.586669921875 1927.722534179688 1286.564208984375 C 1917.807495117188 1288.592895507812 1907.60302734375 1289.621704101562 1897.39208984375 1289.621704101562 Z" stroke="none"/>
      <path d="M 271.548095703125 -104.33740234375 C 161.091064453125 -104.33740234375 0 89.5430908203125 0 199.9998779296875 L 0 889.1216430664062 C 0 1110.03564453125 179.0860595703125 1289.121704101562 400 1289.121704101562 L 1897.39208984375 1289.121704101562 C 1980.234741210938 1289.121704101562 2047.39208984375 1221.96435546875 2047.39208984375 1139.121704101562 L 1611.546508789062 833.9393920898438 C 1611.546508789062 751.096923828125 1453.3828125 665.1848754882812 1370.539794921875 665.1848754882812 L 271.548095703125 -104.33740234375 M 271.548095703125 -105.33740234375 L 271.86328125 -105.33740234375 L 272.12158203125 -105.1566162109375 L 1370.855712890625 664.185302734375 C 1381.021484375 664.2117919921875 1392.466674804688 665.5145263671875 1404.88134765625 668.0586547851562 C 1417.09326171875 670.5611572265625 1430.07958984375 674.2288818359375 1443.4794921875 678.9601440429688 C 1456.811767578125 683.6673583984375 1470.32373046875 689.3458862304688 1483.639770507812 695.837646484375 C 1497.182373046875 702.440185546875 1510.306274414062 709.7799072265625 1522.64697265625 717.6531372070312 C 1535.438232421875 725.8136596679688 1547.258544921875 734.4681396484375 1557.780029296875 743.3759155273438 C 1568.8388671875 752.7384033203125 1578.4384765625 762.3653564453125 1586.31298828125 771.9891357421875 C 1594.664794921875 782.1964111328125 1601.1220703125 792.462890625 1605.505004882812 802.50341796875 C 1610.097412109375 813.0225830078125 1612.464599609375 823.4208984375 1612.54443359375 833.4172973632812 L 2048.39208984375 1138.601196289062 L 2048.39208984375 1139.121704101562 C 2048.39208984375 1149.3662109375 2047.359741210938 1159.604614257812 2045.324340820312 1169.552368164062 C 2043.34033203125 1179.247924804688 2040.379760742188 1188.78466796875 2036.525268554688 1197.89794921875 C 2032.740844726562 1206.845703125 2028.056762695312 1215.475341796875 2022.60302734375 1223.5478515625 C 2017.201293945312 1231.54345703125 2010.998046875 1239.061889648438 2004.165283203125 1245.894897460938 C 1997.332275390625 1252.727661132812 1989.813842773438 1258.930908203125 1981.818359375 1264.332641601562 C 1973.745849609375 1269.786376953125 1965.116088867188 1274.470458984375 1956.168334960938 1278.2548828125 C 1947.055053710938 1282.109375 1937.518310546875 1285.069946289062 1927.82275390625 1287.053955078125 C 1917.875 1289.08935546875 1907.636596679688 1290.121704101562 1897.39208984375 1290.121704101562 L 400 1290.121704101562 C 386.322265625 1290.121704101562 372.5283203125 1289.425170898438 359.0013427734375 1288.051391601562 C 345.6697998046875 1286.697387695312 332.2738037109375 1284.653198242188 319.185546875 1281.974609375 C 306.2666015625 1279.331176757812 293.3365478515625 1276.006591796875 280.7552490234375 1272.093383789062 C 268.3145751953125 1268.223876953125 255.9188232421875 1263.686889648438 243.912353515625 1258.608642578125 C 220.1512451171875 1248.55859375 197.2337646484375 1236.119384765625 175.7962646484375 1221.636596679688 C 154.56298828125 1207.291625976562 134.5960693359375 1190.8173828125 116.4503173828125 1172.67138671875 C 98.3043212890625 1154.525634765625 81.830078125 1134.55859375 67.4849853515625 1113.325439453125 C 53.0023193359375 1091.887939453125 40.56298828125 1068.970458984375 30.5130615234375 1045.209350585938 C 25.434814453125 1033.202880859375 20.8978271484375 1020.80712890625 17.0283203125 1008.366394042969 C 13.114990234375 995.78515625 9.79052734375 982.8551635742188 7.1470947265625 969.9361572265625 C 4.468505859375 956.847900390625 2.42431640625 943.451904296875 1.0703125 930.1204223632812 C -0.303466796875 916.5933837890625 -1 902.7994384765625 -1 889.1216430664062 L -1 199.9998779296875 C -1 186.4544067382812 1.414794921875 171.2906494140625 6.177490234375 154.93017578125 C 10.726806640625 139.3026123046875 17.396484375 122.638916015625 26.0018310546875 105.401611328125 C 34.354248046875 88.670166015625 44.4365234375 71.578857421875 55.968017578125 54.6031494140625 C 67.385009765625 37.795654296875 80.0455322265625 21.360595703125 93.5975341796875 5.75439453125 C 121.6156005859375 -26.5106201171875 152.176025390625 -53.79736328125 181.974853515625 -73.1561279296875 C 197.7425537109375 -83.399658203125 213.167236328125 -91.33056640625 227.821044921875 -96.7291259765625 C 243.3258056640625 -102.4410400390625 258.03759765625 -105.33740234375 271.548095703125 -105.33740234375 Z" stroke="none" fill="#707070"/>
    </g>
  </g>
</svg>
